<mxfile host="app.diagrams.net" modified="2023-11-12T13:55:03.115Z" agent="Mozilla/5.0 (Windows NT 10.0; Win64; x64) AppleWebKit/537.36 (KHTML, like Gecko) Chrome/116.0.5845.837 YaBrowser/23.9.4.837 Yowser/2.5 Safari/537.36" etag="YNpeMKE6p6SGIyumS8pC" version="22.1.0" type="device">
  <diagram name="Страница — 1" id="pSCrf6b-88XFrD4fMcle">
    <mxGraphModel dx="2093" dy="1031" grid="1" gridSize="10" guides="1" tooltips="1" connect="1" arrows="1" fold="1" page="1" pageScale="1" pageWidth="3000" pageHeight="1600" math="0" shadow="0">
      <root>
        <mxCell id="0" />
        <mxCell id="1" parent="0" />
        <mxCell id="5_4CusiNmeQ3dBbPsrmk-4" value="stage_order" style="swimlane;fontStyle=0;childLayout=stackLayout;horizontal=1;startSize=26;horizontalStack=0;resizeParent=1;resizeParentMax=0;resizeLast=0;collapsible=1;marginBottom=0;align=center;fontSize=14;fillColor=#FFFFCC;" parent="1" vertex="1">
          <mxGeometry x="70" y="160" width="120" height="296" as="geometry">
            <mxRectangle x="70" y="160" width="120" height="70" as="alternateBounds" />
          </mxGeometry>
        </mxCell>
        <mxCell id="5_4CusiNmeQ3dBbPsrmk-5" value="order_id" style="text;strokeColor=none;fillColor=none;spacingLeft=4;spacingRight=4;overflow=hidden;rotatable=0;points=[[0,0.5],[1,0.5]];portConstraint=eastwest;fontSize=12;whiteSpace=wrap;html=1;" parent="5_4CusiNmeQ3dBbPsrmk-4" vertex="1">
          <mxGeometry y="26" width="120" height="30" as="geometry" />
        </mxCell>
        <mxCell id="5_4CusiNmeQ3dBbPsrmk-6" value="order_date" style="text;strokeColor=none;fillColor=none;spacingLeft=4;spacingRight=4;overflow=hidden;rotatable=0;points=[[0,0.5],[1,0.5]];portConstraint=eastwest;fontSize=12;whiteSpace=wrap;html=1;" parent="5_4CusiNmeQ3dBbPsrmk-4" vertex="1">
          <mxGeometry y="56" width="120" height="30" as="geometry" />
        </mxCell>
        <mxCell id="5_4CusiNmeQ3dBbPsrmk-7" value="product_name" style="text;strokeColor=none;fillColor=none;spacingLeft=4;spacingRight=4;overflow=hidden;rotatable=0;points=[[0,0.5],[1,0.5]];portConstraint=eastwest;fontSize=12;whiteSpace=wrap;html=1;" parent="5_4CusiNmeQ3dBbPsrmk-4" vertex="1">
          <mxGeometry y="86" width="120" height="30" as="geometry" />
        </mxCell>
        <mxCell id="5_4CusiNmeQ3dBbPsrmk-21" value="price" style="text;strokeColor=none;fillColor=none;spacingLeft=4;spacingRight=4;overflow=hidden;rotatable=0;points=[[0,0.5],[1,0.5]];portConstraint=eastwest;fontSize=12;whiteSpace=wrap;html=1;" parent="5_4CusiNmeQ3dBbPsrmk-4" vertex="1">
          <mxGeometry y="116" width="120" height="30" as="geometry" />
        </mxCell>
        <mxCell id="5_4CusiNmeQ3dBbPsrmk-23" value="brand" style="text;strokeColor=none;fillColor=none;spacingLeft=4;spacingRight=4;overflow=hidden;rotatable=0;points=[[0,0.5],[1,0.5]];portConstraint=eastwest;fontSize=12;whiteSpace=wrap;html=1;" parent="5_4CusiNmeQ3dBbPsrmk-4" vertex="1">
          <mxGeometry y="146" width="120" height="30" as="geometry" />
        </mxCell>
        <mxCell id="5_4CusiNmeQ3dBbPsrmk-24" value="model" style="text;strokeColor=none;fillColor=none;spacingLeft=4;spacingRight=4;overflow=hidden;rotatable=0;points=[[0,0.5],[1,0.5]];portConstraint=eastwest;fontSize=12;whiteSpace=wrap;html=1;" parent="5_4CusiNmeQ3dBbPsrmk-4" vertex="1">
          <mxGeometry y="176" width="120" height="30" as="geometry" />
        </mxCell>
        <mxCell id="5_4CusiNmeQ3dBbPsrmk-25" value="category" style="text;strokeColor=none;fillColor=none;spacingLeft=4;spacingRight=4;overflow=hidden;rotatable=0;points=[[0,0.5],[1,0.5]];portConstraint=eastwest;fontSize=12;whiteSpace=wrap;html=1;" parent="5_4CusiNmeQ3dBbPsrmk-4" vertex="1">
          <mxGeometry y="206" width="120" height="30" as="geometry" />
        </mxCell>
        <mxCell id="5_4CusiNmeQ3dBbPsrmk-26" value="buyer_cookie" style="text;strokeColor=none;fillColor=none;spacingLeft=4;spacingRight=4;overflow=hidden;rotatable=0;points=[[0,0.5],[1,0.5]];portConstraint=eastwest;fontSize=12;whiteSpace=wrap;html=1;" parent="5_4CusiNmeQ3dBbPsrmk-4" vertex="1">
          <mxGeometry y="236" width="120" height="30" as="geometry" />
        </mxCell>
        <mxCell id="5_4CusiNmeQ3dBbPsrmk-27" value="amount" style="text;strokeColor=none;fillColor=none;spacingLeft=4;spacingRight=4;overflow=hidden;rotatable=0;points=[[0,0.5],[1,0.5]];portConstraint=eastwest;fontSize=12;whiteSpace=wrap;html=1;" parent="5_4CusiNmeQ3dBbPsrmk-4" vertex="1">
          <mxGeometry y="266" width="120" height="30" as="geometry" />
        </mxCell>
        <mxCell id="5_4CusiNmeQ3dBbPsrmk-8" value="&lt;b&gt;&lt;font style=&quot;font-size: 36px;&quot;&gt;Stage&lt;/font&gt;&lt;/b&gt;" style="text;strokeColor=none;align=center;fillColor=none;html=1;verticalAlign=middle;whiteSpace=wrap;rounded=0;" parent="1" vertex="1">
          <mxGeometry x="90" y="70" width="60" height="30" as="geometry" />
        </mxCell>
        <mxCell id="5_4CusiNmeQ3dBbPsrmk-28" value="stage_client" style="swimlane;fontStyle=0;childLayout=stackLayout;horizontal=1;startSize=26;horizontalStack=0;resizeParent=1;resizeParentMax=0;resizeLast=0;collapsible=1;marginBottom=0;align=center;fontSize=14;fillColor=#FFFFCC;" parent="1" vertex="1">
          <mxGeometry x="70" y="494" width="120" height="236" as="geometry" />
        </mxCell>
        <mxCell id="5_4CusiNmeQ3dBbPsrmk-29" value="client_id" style="text;strokeColor=none;fillColor=none;spacingLeft=4;spacingRight=4;overflow=hidden;rotatable=0;points=[[0,0.5],[1,0.5]];portConstraint=eastwest;fontSize=12;whiteSpace=wrap;html=1;" parent="5_4CusiNmeQ3dBbPsrmk-28" vertex="1">
          <mxGeometry y="26" width="120" height="30" as="geometry" />
        </mxCell>
        <mxCell id="5_4CusiNmeQ3dBbPsrmk-30" value="buyer_cookie" style="text;strokeColor=none;fillColor=none;spacingLeft=4;spacingRight=4;overflow=hidden;rotatable=0;points=[[0,0.5],[1,0.5]];portConstraint=eastwest;fontSize=12;whiteSpace=wrap;html=1;" parent="5_4CusiNmeQ3dBbPsrmk-28" vertex="1">
          <mxGeometry y="56" width="120" height="30" as="geometry" />
        </mxCell>
        <mxCell id="5_4CusiNmeQ3dBbPsrmk-31" value="fio" style="text;strokeColor=none;fillColor=none;spacingLeft=4;spacingRight=4;overflow=hidden;rotatable=0;points=[[0,0.5],[1,0.5]];portConstraint=eastwest;fontSize=12;whiteSpace=wrap;html=1;" parent="5_4CusiNmeQ3dBbPsrmk-28" vertex="1">
          <mxGeometry y="86" width="120" height="30" as="geometry" />
        </mxCell>
        <mxCell id="5_4CusiNmeQ3dBbPsrmk-32" value="gender" style="text;strokeColor=none;fillColor=none;spacingLeft=4;spacingRight=4;overflow=hidden;rotatable=0;points=[[0,0.5],[1,0.5]];portConstraint=eastwest;fontSize=12;whiteSpace=wrap;html=1;" parent="5_4CusiNmeQ3dBbPsrmk-28" vertex="1">
          <mxGeometry y="116" width="120" height="30" as="geometry" />
        </mxCell>
        <mxCell id="5_4CusiNmeQ3dBbPsrmk-33" value="birthday" style="text;strokeColor=none;fillColor=none;spacingLeft=4;spacingRight=4;overflow=hidden;rotatable=0;points=[[0,0.5],[1,0.5]];portConstraint=eastwest;fontSize=12;whiteSpace=wrap;html=1;" parent="5_4CusiNmeQ3dBbPsrmk-28" vertex="1">
          <mxGeometry y="146" width="120" height="30" as="geometry" />
        </mxCell>
        <mxCell id="5_4CusiNmeQ3dBbPsrmk-34" value="email" style="text;strokeColor=none;fillColor=none;spacingLeft=4;spacingRight=4;overflow=hidden;rotatable=0;points=[[0,0.5],[1,0.5]];portConstraint=eastwest;fontSize=12;whiteSpace=wrap;html=1;" parent="5_4CusiNmeQ3dBbPsrmk-28" vertex="1">
          <mxGeometry y="176" width="120" height="30" as="geometry" />
        </mxCell>
        <mxCell id="5_4CusiNmeQ3dBbPsrmk-35" value="phone" style="text;strokeColor=none;fillColor=none;spacingLeft=4;spacingRight=4;overflow=hidden;rotatable=0;points=[[0,0.5],[1,0.5]];portConstraint=eastwest;fontSize=12;whiteSpace=wrap;html=1;" parent="5_4CusiNmeQ3dBbPsrmk-28" vertex="1">
          <mxGeometry y="206" width="120" height="30" as="geometry" />
        </mxCell>
        <mxCell id="5_4CusiNmeQ3dBbPsrmk-36" value="stage_promo" style="swimlane;fontStyle=0;childLayout=stackLayout;horizontal=1;startSize=26;horizontalStack=0;resizeParent=1;resizeParentMax=0;resizeLast=0;collapsible=1;marginBottom=0;align=center;fontSize=14;fillColor=#FFFFCC;" parent="1" vertex="1">
          <mxGeometry x="70" y="760" width="120" height="176" as="geometry" />
        </mxCell>
        <mxCell id="5_4CusiNmeQ3dBbPsrmk-37" value="promo_id" style="text;strokeColor=none;fillColor=none;spacingLeft=4;spacingRight=4;overflow=hidden;rotatable=0;points=[[0,0.5],[1,0.5]];portConstraint=eastwest;fontSize=12;whiteSpace=wrap;html=1;" parent="5_4CusiNmeQ3dBbPsrmk-36" vertex="1">
          <mxGeometry y="26" width="120" height="30" as="geometry" />
        </mxCell>
        <mxCell id="5_4CusiNmeQ3dBbPsrmk-38" value="product_id" style="text;strokeColor=none;fillColor=none;spacingLeft=4;spacingRight=4;overflow=hidden;rotatable=0;points=[[0,0.5],[1,0.5]];portConstraint=eastwest;fontSize=12;whiteSpace=wrap;html=1;" parent="5_4CusiNmeQ3dBbPsrmk-36" vertex="1">
          <mxGeometry y="56" width="120" height="30" as="geometry" />
        </mxCell>
        <mxCell id="5_4CusiNmeQ3dBbPsrmk-39" value="date_from" style="text;strokeColor=none;fillColor=none;spacingLeft=4;spacingRight=4;overflow=hidden;rotatable=0;points=[[0,0.5],[1,0.5]];portConstraint=eastwest;fontSize=12;whiteSpace=wrap;html=1;" parent="5_4CusiNmeQ3dBbPsrmk-36" vertex="1">
          <mxGeometry y="86" width="120" height="30" as="geometry" />
        </mxCell>
        <mxCell id="5_4CusiNmeQ3dBbPsrmk-40" value="date_to" style="text;strokeColor=none;fillColor=none;spacingLeft=4;spacingRight=4;overflow=hidden;rotatable=0;points=[[0,0.5],[1,0.5]];portConstraint=eastwest;fontSize=12;whiteSpace=wrap;html=1;" parent="5_4CusiNmeQ3dBbPsrmk-36" vertex="1">
          <mxGeometry y="116" width="120" height="30" as="geometry" />
        </mxCell>
        <mxCell id="5_4CusiNmeQ3dBbPsrmk-41" value="amount" style="text;strokeColor=none;fillColor=none;spacingLeft=4;spacingRight=4;overflow=hidden;rotatable=0;points=[[0,0.5],[1,0.5]];portConstraint=eastwest;fontSize=12;whiteSpace=wrap;html=1;" parent="5_4CusiNmeQ3dBbPsrmk-36" vertex="1">
          <mxGeometry y="146" width="120" height="30" as="geometry" />
        </mxCell>
        <mxCell id="5_4CusiNmeQ3dBbPsrmk-42" value="&lt;b&gt;&lt;font style=&quot;font-size: 36px;&quot;&gt;Core&lt;/font&gt;&lt;/b&gt;" style="text;strokeColor=none;align=center;fillColor=none;html=1;verticalAlign=middle;whiteSpace=wrap;rounded=0;" parent="1" vertex="1">
          <mxGeometry x="920" y="70" width="60" height="30" as="geometry" />
        </mxCell>
        <mxCell id="5_4CusiNmeQ3dBbPsrmk-79" value="&lt;b&gt;&lt;font style=&quot;font-size: 36px;&quot;&gt;Mart&lt;/font&gt;&lt;/b&gt;" style="text;strokeColor=none;align=center;fillColor=none;html=1;verticalAlign=middle;whiteSpace=wrap;rounded=0;" parent="1" vertex="1">
          <mxGeometry x="1940" y="70" width="60" height="30" as="geometry" />
        </mxCell>
        <mxCell id="5_4CusiNmeQ3dBbPsrmk-80" value="mart_client_data" style="swimlane;fontStyle=0;childLayout=stackLayout;horizontal=1;startSize=26;horizontalStack=0;resizeParent=1;resizeParentMax=0;resizeLast=0;collapsible=1;marginBottom=0;align=center;fontSize=14;fillColor=#CC6600;" parent="1" vertex="1">
          <mxGeometry x="1900" y="336" width="160" height="296" as="geometry" />
        </mxCell>
        <mxCell id="5_4CusiNmeQ3dBbPsrmk-81" value="client_id" style="text;strokeColor=none;fillColor=none;spacingLeft=4;spacingRight=4;overflow=hidden;rotatable=0;points=[[0,0.5],[1,0.5]];portConstraint=eastwest;fontSize=12;whiteSpace=wrap;html=1;" parent="5_4CusiNmeQ3dBbPsrmk-80" vertex="1">
          <mxGeometry y="26" width="160" height="30" as="geometry" />
        </mxCell>
        <mxCell id="5_4CusiNmeQ3dBbPsrmk-82" value="gender" style="text;strokeColor=none;fillColor=none;spacingLeft=4;spacingRight=4;overflow=hidden;rotatable=0;points=[[0,0.5],[1,0.5]];portConstraint=eastwest;fontSize=12;whiteSpace=wrap;html=1;" parent="5_4CusiNmeQ3dBbPsrmk-80" vertex="1">
          <mxGeometry y="56" width="160" height="30" as="geometry" />
        </mxCell>
        <mxCell id="5_4CusiNmeQ3dBbPsrmk-83" value="age_category" style="text;strokeColor=none;fillColor=none;spacingLeft=4;spacingRight=4;overflow=hidden;rotatable=0;points=[[0,0.5],[1,0.5]];portConstraint=eastwest;fontSize=12;whiteSpace=wrap;html=1;" parent="5_4CusiNmeQ3dBbPsrmk-80" vertex="1">
          <mxGeometry y="86" width="160" height="30" as="geometry" />
        </mxCell>
        <mxCell id="5_4CusiNmeQ3dBbPsrmk-84" value="email" style="text;strokeColor=none;fillColor=none;spacingLeft=4;spacingRight=4;overflow=hidden;rotatable=0;points=[[0,0.5],[1,0.5]];portConstraint=eastwest;fontSize=12;whiteSpace=wrap;html=1;" parent="5_4CusiNmeQ3dBbPsrmk-80" vertex="1">
          <mxGeometry y="116" width="160" height="30" as="geometry" />
        </mxCell>
        <mxCell id="5_4CusiNmeQ3dBbPsrmk-85" value="phone" style="text;strokeColor=none;fillColor=none;spacingLeft=4;spacingRight=4;overflow=hidden;rotatable=0;points=[[0,0.5],[1,0.5]];portConstraint=eastwest;fontSize=12;whiteSpace=wrap;html=1;" parent="5_4CusiNmeQ3dBbPsrmk-80" vertex="1">
          <mxGeometry y="146" width="160" height="30" as="geometry" />
        </mxCell>
        <mxCell id="5_4CusiNmeQ3dBbPsrmk-86" value="most_bought_product" style="text;strokeColor=none;fillColor=none;spacingLeft=4;spacingRight=4;overflow=hidden;rotatable=0;points=[[0,0.5],[1,0.5]];portConstraint=eastwest;fontSize=12;whiteSpace=wrap;html=1;" parent="5_4CusiNmeQ3dBbPsrmk-80" vertex="1">
          <mxGeometry y="176" width="160" height="30" as="geometry" />
        </mxCell>
        <mxCell id="5_4CusiNmeQ3dBbPsrmk-87" value="most_bought_brand" style="text;strokeColor=none;fillColor=none;spacingLeft=4;spacingRight=4;overflow=hidden;rotatable=0;points=[[0,0.5],[1,0.5]];portConstraint=eastwest;fontSize=12;whiteSpace=wrap;html=1;" parent="5_4CusiNmeQ3dBbPsrmk-80" vertex="1">
          <mxGeometry y="206" width="160" height="30" as="geometry" />
        </mxCell>
        <mxCell id="5_4CusiNmeQ3dBbPsrmk-88" value="amount_per_month" style="text;strokeColor=none;fillColor=none;spacingLeft=4;spacingRight=4;overflow=hidden;rotatable=0;points=[[0,0.5],[1,0.5]];portConstraint=eastwest;fontSize=12;whiteSpace=wrap;html=1;" parent="5_4CusiNmeQ3dBbPsrmk-80" vertex="1">
          <mxGeometry y="236" width="160" height="30" as="geometry" />
        </mxCell>
        <mxCell id="5_4CusiNmeQ3dBbPsrmk-89" value="cnt_with_promo" style="text;strokeColor=none;fillColor=none;spacingLeft=4;spacingRight=4;overflow=hidden;rotatable=0;points=[[0,0.5],[1,0.5]];portConstraint=eastwest;fontSize=12;whiteSpace=wrap;html=1;" parent="5_4CusiNmeQ3dBbPsrmk-80" vertex="1">
          <mxGeometry y="266" width="160" height="30" as="geometry" />
        </mxCell>
        <mxCell id="5_4CusiNmeQ3dBbPsrmk-92" style="edgeStyle=orthogonalEdgeStyle;rounded=0;orthogonalLoop=1;jettySize=auto;html=1;exitX=0.5;exitY=1;exitDx=0;exitDy=0;" parent="1" edge="1">
          <mxGeometry relative="1" as="geometry">
            <mxPoint x="1285" y="750" as="sourcePoint" />
            <mxPoint x="1285" y="750" as="targetPoint" />
          </mxGeometry>
        </mxCell>
        <mxCell id="-BBKIG1JbGm5hQu0xdhR-24" value="" style="endArrow=none;html=1;rounded=0;" parent="1" edge="1">
          <mxGeometry width="50" height="50" relative="1" as="geometry">
            <mxPoint x="280" y="1044" as="sourcePoint" />
            <mxPoint x="280" y="120" as="targetPoint" />
          </mxGeometry>
        </mxCell>
        <mxCell id="-BBKIG1JbGm5hQu0xdhR-25" value="" style="endArrow=none;html=1;rounded=0;" parent="1" edge="1">
          <mxGeometry width="50" height="50" relative="1" as="geometry">
            <mxPoint x="1830" y="1022" as="sourcePoint" />
            <mxPoint x="1830" y="100" as="targetPoint" />
          </mxGeometry>
        </mxCell>
        <mxCell id="IxB0ZYi03rvREHSyek8v-1" value="link_order_product" style="swimlane;fontStyle=0;childLayout=stackLayout;horizontal=1;startSize=26;horizontalStack=0;resizeParent=1;resizeParentMax=0;resizeLast=0;collapsible=1;marginBottom=0;align=center;fontSize=14;fillColor=#FF9999;" vertex="1" parent="1">
          <mxGeometry x="550" y="286" width="200" height="176" as="geometry" />
        </mxCell>
        <mxCell id="IxB0ZYi03rvREHSyek8v-2" value="&lt;b&gt;&lt;u&gt;link order product hash key&lt;/u&gt;&lt;/b&gt;" style="text;strokeColor=none;fillColor=none;spacingLeft=4;spacingRight=4;overflow=hidden;rotatable=0;points=[[0,0.5],[1,0.5]];portConstraint=eastwest;fontSize=12;whiteSpace=wrap;html=1;" vertex="1" parent="IxB0ZYi03rvREHSyek8v-1">
          <mxGeometry y="26" width="200" height="30" as="geometry" />
        </mxCell>
        <mxCell id="IxB0ZYi03rvREHSyek8v-3" value="load_date" style="text;strokeColor=none;fillColor=none;spacingLeft=4;spacingRight=4;overflow=hidden;rotatable=0;points=[[0,0.5],[1,0.5]];portConstraint=eastwest;fontSize=12;whiteSpace=wrap;html=1;" vertex="1" parent="IxB0ZYi03rvREHSyek8v-1">
          <mxGeometry y="56" width="200" height="30" as="geometry" />
        </mxCell>
        <mxCell id="IxB0ZYi03rvREHSyek8v-4" value="record_source" style="text;strokeColor=none;fillColor=none;spacingLeft=4;spacingRight=4;overflow=hidden;rotatable=0;points=[[0,0.5],[1,0.5]];portConstraint=eastwest;fontSize=12;whiteSpace=wrap;html=1;" vertex="1" parent="IxB0ZYi03rvREHSyek8v-1">
          <mxGeometry y="86" width="200" height="30" as="geometry" />
        </mxCell>
        <mxCell id="IxB0ZYi03rvREHSyek8v-5" value="order_hash_key" style="text;strokeColor=none;fillColor=none;spacingLeft=4;spacingRight=4;overflow=hidden;rotatable=0;points=[[0,0.5],[1,0.5]];portConstraint=eastwest;fontSize=12;whiteSpace=wrap;html=1;" vertex="1" parent="IxB0ZYi03rvREHSyek8v-1">
          <mxGeometry y="116" width="200" height="30" as="geometry" />
        </mxCell>
        <mxCell id="IxB0ZYi03rvREHSyek8v-6" value="product_hash_key" style="text;strokeColor=none;fillColor=none;spacingLeft=4;spacingRight=4;overflow=hidden;rotatable=0;points=[[0,0.5],[1,0.5]];portConstraint=eastwest;fontSize=12;whiteSpace=wrap;html=1;" vertex="1" parent="IxB0ZYi03rvREHSyek8v-1">
          <mxGeometry y="146" width="200" height="30" as="geometry" />
        </mxCell>
        <mxCell id="IxB0ZYi03rvREHSyek8v-7" value="hab_product" style="swimlane;fontStyle=0;childLayout=stackLayout;horizontal=1;startSize=26;horizontalStack=0;resizeParent=1;resizeParentMax=0;resizeLast=0;collapsible=1;marginBottom=0;align=center;fontSize=14;fillColor=#99FF99;" vertex="1" parent="1">
          <mxGeometry x="300" y="286" width="160" height="146" as="geometry" />
        </mxCell>
        <mxCell id="IxB0ZYi03rvREHSyek8v-8" value="&lt;u&gt;&lt;b&gt;product hash key&lt;/b&gt;&lt;/u&gt;" style="text;strokeColor=none;fillColor=none;spacingLeft=4;spacingRight=4;overflow=hidden;rotatable=0;points=[[0,0.5],[1,0.5]];portConstraint=eastwest;fontSize=12;whiteSpace=wrap;html=1;" vertex="1" parent="IxB0ZYi03rvREHSyek8v-7">
          <mxGeometry y="26" width="160" height="30" as="geometry" />
        </mxCell>
        <mxCell id="IxB0ZYi03rvREHSyek8v-9" value="PK product_id" style="text;strokeColor=none;fillColor=none;spacingLeft=4;spacingRight=4;overflow=hidden;rotatable=0;points=[[0,0.5],[1,0.5]];portConstraint=eastwest;fontSize=12;whiteSpace=wrap;html=1;" vertex="1" parent="IxB0ZYi03rvREHSyek8v-7">
          <mxGeometry y="56" width="160" height="30" as="geometry" />
        </mxCell>
        <mxCell id="IxB0ZYi03rvREHSyek8v-10" value="load_date" style="text;strokeColor=none;fillColor=none;spacingLeft=4;spacingRight=4;overflow=hidden;rotatable=0;points=[[0,0.5],[1,0.5]];portConstraint=eastwest;fontSize=12;whiteSpace=wrap;html=1;" vertex="1" parent="IxB0ZYi03rvREHSyek8v-7">
          <mxGeometry y="86" width="160" height="30" as="geometry" />
        </mxCell>
        <mxCell id="IxB0ZYi03rvREHSyek8v-11" value="record_source" style="text;strokeColor=none;fillColor=none;spacingLeft=4;spacingRight=4;overflow=hidden;rotatable=0;points=[[0,0.5],[1,0.5]];portConstraint=eastwest;fontSize=12;whiteSpace=wrap;html=1;" vertex="1" parent="IxB0ZYi03rvREHSyek8v-7">
          <mxGeometry y="116" width="160" height="30" as="geometry" />
        </mxCell>
        <mxCell id="IxB0ZYi03rvREHSyek8v-12" value="sat_product" style="swimlane;fontStyle=0;childLayout=stackLayout;horizontal=1;startSize=26;horizontalStack=0;resizeParent=1;resizeParentMax=0;resizeLast=0;collapsible=1;marginBottom=0;align=center;fontSize=14;fillColor=#FF99FF;" vertex="1" parent="1">
          <mxGeometry x="300" y="506" width="160" height="236" as="geometry" />
        </mxCell>
        <mxCell id="IxB0ZYi03rvREHSyek8v-13" value="&lt;b&gt;&lt;u&gt;product hash key&lt;/u&gt;&lt;/b&gt;" style="text;strokeColor=none;fillColor=none;spacingLeft=4;spacingRight=4;overflow=hidden;rotatable=0;points=[[0,0.5],[1,0.5]];portConstraint=eastwest;fontSize=12;whiteSpace=wrap;html=1;" vertex="1" parent="IxB0ZYi03rvREHSyek8v-12">
          <mxGeometry y="26" width="160" height="30" as="geometry" />
        </mxCell>
        <mxCell id="IxB0ZYi03rvREHSyek8v-14" value="load_date" style="text;strokeColor=none;fillColor=none;spacingLeft=4;spacingRight=4;overflow=hidden;rotatable=0;points=[[0,0.5],[1,0.5]];portConstraint=eastwest;fontSize=12;whiteSpace=wrap;html=1;" vertex="1" parent="IxB0ZYi03rvREHSyek8v-12">
          <mxGeometry y="56" width="160" height="30" as="geometry" />
        </mxCell>
        <mxCell id="IxB0ZYi03rvREHSyek8v-15" value="record_source" style="text;strokeColor=none;fillColor=none;spacingLeft=4;spacingRight=4;overflow=hidden;rotatable=0;points=[[0,0.5],[1,0.5]];portConstraint=eastwest;fontSize=12;whiteSpace=wrap;html=1;" vertex="1" parent="IxB0ZYi03rvREHSyek8v-12">
          <mxGeometry y="86" width="160" height="30" as="geometry" />
        </mxCell>
        <mxCell id="IxB0ZYi03rvREHSyek8v-16" value="product_name" style="text;strokeColor=none;fillColor=none;spacingLeft=4;spacingRight=4;overflow=hidden;rotatable=0;points=[[0,0.5],[1,0.5]];portConstraint=eastwest;fontSize=12;whiteSpace=wrap;html=1;" vertex="1" parent="IxB0ZYi03rvREHSyek8v-12">
          <mxGeometry y="116" width="160" height="30" as="geometry" />
        </mxCell>
        <mxCell id="IxB0ZYi03rvREHSyek8v-17" value="brand" style="text;strokeColor=none;fillColor=none;spacingLeft=4;spacingRight=4;overflow=hidden;rotatable=0;points=[[0,0.5],[1,0.5]];portConstraint=eastwest;fontSize=12;whiteSpace=wrap;html=1;" vertex="1" parent="IxB0ZYi03rvREHSyek8v-12">
          <mxGeometry y="146" width="160" height="30" as="geometry" />
        </mxCell>
        <mxCell id="IxB0ZYi03rvREHSyek8v-18" value="model" style="text;strokeColor=none;fillColor=none;spacingLeft=4;spacingRight=4;overflow=hidden;rotatable=0;points=[[0,0.5],[1,0.5]];portConstraint=eastwest;fontSize=12;whiteSpace=wrap;html=1;" vertex="1" parent="IxB0ZYi03rvREHSyek8v-12">
          <mxGeometry y="176" width="160" height="30" as="geometry" />
        </mxCell>
        <mxCell id="IxB0ZYi03rvREHSyek8v-19" value="category" style="text;strokeColor=none;fillColor=none;spacingLeft=4;spacingRight=4;overflow=hidden;rotatable=0;points=[[0,0.5],[1,0.5]];portConstraint=eastwest;fontSize=12;whiteSpace=wrap;html=1;" vertex="1" parent="IxB0ZYi03rvREHSyek8v-12">
          <mxGeometry y="206" width="160" height="30" as="geometry" />
        </mxCell>
        <mxCell id="IxB0ZYi03rvREHSyek8v-20" value="" style="fontSize=12;html=1;endArrow=ERoneToMany;rounded=0;entryX=0.46;entryY=0.001;entryDx=0;entryDy=0;entryPerimeter=0;exitX=0.463;exitY=0.956;exitDx=0;exitDy=0;exitPerimeter=0;" edge="1" parent="1" source="IxB0ZYi03rvREHSyek8v-11" target="IxB0ZYi03rvREHSyek8v-12">
          <mxGeometry width="100" height="100" relative="1" as="geometry">
            <mxPoint x="480" y="640" as="sourcePoint" />
            <mxPoint x="580" y="540" as="targetPoint" />
          </mxGeometry>
        </mxCell>
        <mxCell id="IxB0ZYi03rvREHSyek8v-22" value="" style="fontSize=12;html=1;endArrow=ERoneToMany;rounded=0;entryX=0;entryY=0.5;entryDx=0;entryDy=0;exitX=1;exitY=0.5;exitDx=0;exitDy=0;" edge="1" parent="1" source="IxB0ZYi03rvREHSyek8v-9" target="IxB0ZYi03rvREHSyek8v-3">
          <mxGeometry width="100" height="100" relative="1" as="geometry">
            <mxPoint x="430" y="460" as="sourcePoint" />
            <mxPoint x="530" y="360" as="targetPoint" />
          </mxGeometry>
        </mxCell>
        <mxCell id="IxB0ZYi03rvREHSyek8v-23" value="sat_order_promo" style="swimlane;fontStyle=0;childLayout=stackLayout;horizontal=1;startSize=26;horizontalStack=0;resizeParent=1;resizeParentMax=0;resizeLast=0;collapsible=1;marginBottom=0;align=center;fontSize=14;fillColor=#CC99FF;" vertex="1" parent="1">
          <mxGeometry x="560" y="516" width="160" height="116" as="geometry" />
        </mxCell>
        <mxCell id="IxB0ZYi03rvREHSyek8v-24" value="&lt;b&gt;&lt;u&gt;promo hash key&lt;/u&gt;&lt;/b&gt;" style="text;strokeColor=none;fillColor=none;spacingLeft=4;spacingRight=4;overflow=hidden;rotatable=0;points=[[0,0.5],[1,0.5]];portConstraint=eastwest;fontSize=12;whiteSpace=wrap;html=1;" vertex="1" parent="IxB0ZYi03rvREHSyek8v-23">
          <mxGeometry y="26" width="160" height="30" as="geometry" />
        </mxCell>
        <mxCell id="IxB0ZYi03rvREHSyek8v-25" value="product_id" style="text;strokeColor=none;fillColor=none;spacingLeft=4;spacingRight=4;overflow=hidden;rotatable=0;points=[[0,0.5],[1,0.5]];portConstraint=eastwest;fontSize=12;whiteSpace=wrap;html=1;" vertex="1" parent="IxB0ZYi03rvREHSyek8v-23">
          <mxGeometry y="56" width="160" height="30" as="geometry" />
        </mxCell>
        <mxCell id="IxB0ZYi03rvREHSyek8v-26" value="discount" style="text;strokeColor=none;fillColor=none;spacingLeft=4;spacingRight=4;overflow=hidden;rotatable=0;points=[[0,0.5],[1,0.5]];portConstraint=eastwest;fontSize=12;whiteSpace=wrap;html=1;" vertex="1" parent="IxB0ZYi03rvREHSyek8v-23">
          <mxGeometry y="86" width="160" height="30" as="geometry" />
        </mxCell>
        <mxCell id="IxB0ZYi03rvREHSyek8v-27" value="sat_promo" style="swimlane;fontStyle=0;childLayout=stackLayout;horizontal=1;startSize=26;horizontalStack=0;resizeParent=1;resizeParentMax=0;resizeLast=0;collapsible=1;marginBottom=0;align=center;fontSize=14;strokeColor=#CC99FF;fillColor=#CC99FF;" vertex="1" parent="1">
          <mxGeometry x="560" y="740" width="160" height="116" as="geometry" />
        </mxCell>
        <mxCell id="IxB0ZYi03rvREHSyek8v-28" value="&lt;b&gt;&lt;u&gt;promo hash key&lt;/u&gt;&lt;/b&gt;" style="text;strokeColor=none;fillColor=none;spacingLeft=4;spacingRight=4;overflow=hidden;rotatable=0;points=[[0,0.5],[1,0.5]];portConstraint=eastwest;fontSize=12;whiteSpace=wrap;html=1;" vertex="1" parent="IxB0ZYi03rvREHSyek8v-27">
          <mxGeometry y="26" width="160" height="30" as="geometry" />
        </mxCell>
        <mxCell id="IxB0ZYi03rvREHSyek8v-29" value="start_date" style="text;strokeColor=none;fillColor=none;spacingLeft=4;spacingRight=4;overflow=hidden;rotatable=0;points=[[0,0.5],[1,0.5]];portConstraint=eastwest;fontSize=12;whiteSpace=wrap;html=1;" vertex="1" parent="IxB0ZYi03rvREHSyek8v-27">
          <mxGeometry y="56" width="160" height="30" as="geometry" />
        </mxCell>
        <mxCell id="IxB0ZYi03rvREHSyek8v-30" value="stop_date" style="text;strokeColor=none;fillColor=none;spacingLeft=4;spacingRight=4;overflow=hidden;rotatable=0;points=[[0,0.5],[1,0.5]];portConstraint=eastwest;fontSize=12;whiteSpace=wrap;html=1;" vertex="1" parent="IxB0ZYi03rvREHSyek8v-27">
          <mxGeometry y="86" width="160" height="30" as="geometry" />
        </mxCell>
        <mxCell id="IxB0ZYi03rvREHSyek8v-31" value="sat_order_product" style="swimlane;fontStyle=0;childLayout=stackLayout;horizontal=1;startSize=26;horizontalStack=0;resizeParent=1;resizeParentMax=0;resizeLast=0;collapsible=1;marginBottom=0;align=center;fontSize=14;fillColor=#CC99FF;" vertex="1" parent="1">
          <mxGeometry x="550" y="30" width="230" height="176" as="geometry" />
        </mxCell>
        <mxCell id="IxB0ZYi03rvREHSyek8v-32" value="&lt;b&gt;&lt;u&gt;link order product hash key&lt;/u&gt;&lt;/b&gt;" style="text;strokeColor=none;fillColor=none;spacingLeft=4;spacingRight=4;overflow=hidden;rotatable=0;points=[[0,0.5],[1,0.5]];portConstraint=eastwest;fontSize=12;whiteSpace=wrap;html=1;" vertex="1" parent="IxB0ZYi03rvREHSyek8v-31">
          <mxGeometry y="26" width="230" height="30" as="geometry" />
        </mxCell>
        <mxCell id="IxB0ZYi03rvREHSyek8v-33" value="load_date" style="text;strokeColor=none;fillColor=none;spacingLeft=4;spacingRight=4;overflow=hidden;rotatable=0;points=[[0,0.5],[1,0.5]];portConstraint=eastwest;fontSize=12;whiteSpace=wrap;html=1;" vertex="1" parent="IxB0ZYi03rvREHSyek8v-31">
          <mxGeometry y="56" width="230" height="30" as="geometry" />
        </mxCell>
        <mxCell id="IxB0ZYi03rvREHSyek8v-34" value="record_source" style="text;strokeColor=none;fillColor=none;spacingLeft=4;spacingRight=4;overflow=hidden;rotatable=0;points=[[0,0.5],[1,0.5]];portConstraint=eastwest;fontSize=12;whiteSpace=wrap;html=1;" vertex="1" parent="IxB0ZYi03rvREHSyek8v-31">
          <mxGeometry y="86" width="230" height="30" as="geometry" />
        </mxCell>
        <mxCell id="IxB0ZYi03rvREHSyek8v-35" value="amount" style="text;strokeColor=none;fillColor=none;spacingLeft=4;spacingRight=4;overflow=hidden;rotatable=0;points=[[0,0.5],[1,0.5]];portConstraint=eastwest;fontSize=12;whiteSpace=wrap;html=1;" vertex="1" parent="IxB0ZYi03rvREHSyek8v-31">
          <mxGeometry y="116" width="230" height="30" as="geometry" />
        </mxCell>
        <mxCell id="IxB0ZYi03rvREHSyek8v-36" value="price" style="text;strokeColor=none;fillColor=none;spacingLeft=4;spacingRight=4;overflow=hidden;rotatable=0;points=[[0,0.5],[1,0.5]];portConstraint=eastwest;fontSize=12;whiteSpace=wrap;html=1;" vertex="1" parent="IxB0ZYi03rvREHSyek8v-31">
          <mxGeometry y="146" width="230" height="30" as="geometry" />
        </mxCell>
        <mxCell id="IxB0ZYi03rvREHSyek8v-37" value="" style="fontSize=12;html=1;endArrow=ERoneToMany;rounded=0;entryX=0.435;entryY=1.067;entryDx=0;entryDy=0;exitX=0.5;exitY=0;exitDx=0;exitDy=0;entryPerimeter=0;" edge="1" parent="1" source="IxB0ZYi03rvREHSyek8v-1" target="IxB0ZYi03rvREHSyek8v-36">
          <mxGeometry width="100" height="100" relative="1" as="geometry">
            <mxPoint x="470" y="367" as="sourcePoint" />
            <mxPoint x="560" y="367" as="targetPoint" />
          </mxGeometry>
        </mxCell>
        <mxCell id="IxB0ZYi03rvREHSyek8v-38" value="hab_order" style="swimlane;fontStyle=0;childLayout=stackLayout;horizontal=1;startSize=26;horizontalStack=0;resizeParent=1;resizeParentMax=0;resizeLast=0;collapsible=1;marginBottom=0;align=center;fontSize=14;fillColor=#99FF99;" vertex="1" parent="1">
          <mxGeometry x="880" y="286" width="160" height="146" as="geometry" />
        </mxCell>
        <mxCell id="IxB0ZYi03rvREHSyek8v-39" value="&lt;b&gt;&lt;u&gt;order hash key&lt;/u&gt;&lt;/b&gt;" style="text;strokeColor=none;fillColor=none;spacingLeft=4;spacingRight=4;overflow=hidden;rotatable=0;points=[[0,0.5],[1,0.5]];portConstraint=eastwest;fontSize=12;whiteSpace=wrap;html=1;" vertex="1" parent="IxB0ZYi03rvREHSyek8v-38">
          <mxGeometry y="26" width="160" height="30" as="geometry" />
        </mxCell>
        <mxCell id="IxB0ZYi03rvREHSyek8v-40" value="&lt;b&gt;PK &lt;/b&gt;order_id" style="text;strokeColor=none;fillColor=none;spacingLeft=4;spacingRight=4;overflow=hidden;rotatable=0;points=[[0,0.5],[1,0.5]];portConstraint=eastwest;fontSize=12;whiteSpace=wrap;html=1;" vertex="1" parent="IxB0ZYi03rvREHSyek8v-38">
          <mxGeometry y="56" width="160" height="30" as="geometry" />
        </mxCell>
        <mxCell id="IxB0ZYi03rvREHSyek8v-41" value="load_date" style="text;strokeColor=none;fillColor=none;spacingLeft=4;spacingRight=4;overflow=hidden;rotatable=0;points=[[0,0.5],[1,0.5]];portConstraint=eastwest;fontSize=12;whiteSpace=wrap;html=1;" vertex="1" parent="IxB0ZYi03rvREHSyek8v-38">
          <mxGeometry y="86" width="160" height="30" as="geometry" />
        </mxCell>
        <mxCell id="IxB0ZYi03rvREHSyek8v-42" value="record_source" style="text;strokeColor=none;fillColor=none;spacingLeft=4;spacingRight=4;overflow=hidden;rotatable=0;points=[[0,0.5],[1,0.5]];portConstraint=eastwest;fontSize=12;whiteSpace=wrap;html=1;" vertex="1" parent="IxB0ZYi03rvREHSyek8v-38">
          <mxGeometry y="116" width="160" height="30" as="geometry" />
        </mxCell>
        <mxCell id="IxB0ZYi03rvREHSyek8v-43" value="link_order_promo" style="swimlane;fontStyle=0;childLayout=stackLayout;horizontal=1;startSize=26;horizontalStack=0;resizeParent=1;resizeParentMax=0;resizeLast=0;collapsible=1;marginBottom=0;align=center;fontSize=14;fillColor=#FF9999;" vertex="1" parent="1">
          <mxGeometry x="860" y="504" width="200" height="176" as="geometry" />
        </mxCell>
        <mxCell id="IxB0ZYi03rvREHSyek8v-44" value="&lt;b&gt;&lt;u&gt;link order promo hash key&lt;/u&gt;&lt;/b&gt;" style="text;strokeColor=none;fillColor=none;spacingLeft=4;spacingRight=4;overflow=hidden;rotatable=0;points=[[0,0.5],[1,0.5]];portConstraint=eastwest;fontSize=12;whiteSpace=wrap;html=1;" vertex="1" parent="IxB0ZYi03rvREHSyek8v-43">
          <mxGeometry y="26" width="200" height="30" as="geometry" />
        </mxCell>
        <mxCell id="IxB0ZYi03rvREHSyek8v-45" value="load_date" style="text;strokeColor=none;fillColor=none;spacingLeft=4;spacingRight=4;overflow=hidden;rotatable=0;points=[[0,0.5],[1,0.5]];portConstraint=eastwest;fontSize=12;whiteSpace=wrap;html=1;" vertex="1" parent="IxB0ZYi03rvREHSyek8v-43">
          <mxGeometry y="56" width="200" height="30" as="geometry" />
        </mxCell>
        <mxCell id="IxB0ZYi03rvREHSyek8v-46" value="record_source" style="text;strokeColor=none;fillColor=none;spacingLeft=4;spacingRight=4;overflow=hidden;rotatable=0;points=[[0,0.5],[1,0.5]];portConstraint=eastwest;fontSize=12;whiteSpace=wrap;html=1;" vertex="1" parent="IxB0ZYi03rvREHSyek8v-43">
          <mxGeometry y="86" width="200" height="30" as="geometry" />
        </mxCell>
        <mxCell id="IxB0ZYi03rvREHSyek8v-47" value="order_hash_key" style="text;strokeColor=none;fillColor=none;spacingLeft=4;spacingRight=4;overflow=hidden;rotatable=0;points=[[0,0.5],[1,0.5]];portConstraint=eastwest;fontSize=12;whiteSpace=wrap;html=1;" vertex="1" parent="IxB0ZYi03rvREHSyek8v-43">
          <mxGeometry y="116" width="200" height="30" as="geometry" />
        </mxCell>
        <mxCell id="IxB0ZYi03rvREHSyek8v-48" value="promo_hash_key" style="text;strokeColor=none;fillColor=none;spacingLeft=4;spacingRight=4;overflow=hidden;rotatable=0;points=[[0,0.5],[1,0.5]];portConstraint=eastwest;fontSize=12;whiteSpace=wrap;html=1;" vertex="1" parent="IxB0ZYi03rvREHSyek8v-43">
          <mxGeometry y="146" width="200" height="30" as="geometry" />
        </mxCell>
        <mxCell id="IxB0ZYi03rvREHSyek8v-49" value="hab_promo" style="swimlane;fontStyle=0;childLayout=stackLayout;horizontal=1;startSize=26;horizontalStack=0;resizeParent=1;resizeParentMax=0;resizeLast=0;collapsible=1;marginBottom=0;align=center;fontSize=14;fillColor=#99FF99;" vertex="1" parent="1">
          <mxGeometry x="880" y="730" width="160" height="146" as="geometry" />
        </mxCell>
        <mxCell id="IxB0ZYi03rvREHSyek8v-50" value="&lt;b&gt;&lt;u&gt;promo hash key&lt;/u&gt;&lt;/b&gt;" style="text;strokeColor=none;fillColor=none;spacingLeft=4;spacingRight=4;overflow=hidden;rotatable=0;points=[[0,0.5],[1,0.5]];portConstraint=eastwest;fontSize=12;whiteSpace=wrap;html=1;" vertex="1" parent="IxB0ZYi03rvREHSyek8v-49">
          <mxGeometry y="26" width="160" height="30" as="geometry" />
        </mxCell>
        <mxCell id="IxB0ZYi03rvREHSyek8v-51" value="&lt;b&gt;PK &lt;/b&gt;promo_id" style="text;strokeColor=none;fillColor=none;spacingLeft=4;spacingRight=4;overflow=hidden;rotatable=0;points=[[0,0.5],[1,0.5]];portConstraint=eastwest;fontSize=12;whiteSpace=wrap;html=1;" vertex="1" parent="IxB0ZYi03rvREHSyek8v-49">
          <mxGeometry y="56" width="160" height="30" as="geometry" />
        </mxCell>
        <mxCell id="IxB0ZYi03rvREHSyek8v-52" value="load_date" style="text;strokeColor=none;fillColor=none;spacingLeft=4;spacingRight=4;overflow=hidden;rotatable=0;points=[[0,0.5],[1,0.5]];portConstraint=eastwest;fontSize=12;whiteSpace=wrap;html=1;" vertex="1" parent="IxB0ZYi03rvREHSyek8v-49">
          <mxGeometry y="86" width="160" height="30" as="geometry" />
        </mxCell>
        <mxCell id="IxB0ZYi03rvREHSyek8v-53" value="record_source" style="text;strokeColor=none;fillColor=none;spacingLeft=4;spacingRight=4;overflow=hidden;rotatable=0;points=[[0,0.5],[1,0.5]];portConstraint=eastwest;fontSize=12;whiteSpace=wrap;html=1;" vertex="1" parent="IxB0ZYi03rvREHSyek8v-49">
          <mxGeometry y="116" width="160" height="30" as="geometry" />
        </mxCell>
        <mxCell id="IxB0ZYi03rvREHSyek8v-54" value="" style="fontSize=12;html=1;endArrow=ERoneToMany;rounded=0;entryX=1;entryY=0.5;entryDx=0;entryDy=0;exitX=0;exitY=0.5;exitDx=0;exitDy=0;" edge="1" parent="1" source="IxB0ZYi03rvREHSyek8v-40" target="IxB0ZYi03rvREHSyek8v-3">
          <mxGeometry width="100" height="100" relative="1" as="geometry">
            <mxPoint x="660" y="296" as="sourcePoint" />
            <mxPoint x="660" y="218" as="targetPoint" />
          </mxGeometry>
        </mxCell>
        <mxCell id="IxB0ZYi03rvREHSyek8v-55" value="" style="fontSize=12;html=1;endArrow=ERoneToMany;rounded=0;entryX=0.5;entryY=0;entryDx=0;entryDy=0;exitX=0.5;exitY=1.033;exitDx=0;exitDy=0;exitPerimeter=0;" edge="1" parent="1" source="IxB0ZYi03rvREHSyek8v-42" target="IxB0ZYi03rvREHSyek8v-43">
          <mxGeometry width="100" height="100" relative="1" as="geometry">
            <mxPoint x="660" y="296" as="sourcePoint" />
            <mxPoint x="660" y="218" as="targetPoint" />
          </mxGeometry>
        </mxCell>
        <mxCell id="IxB0ZYi03rvREHSyek8v-56" value="" style="fontSize=12;html=1;endArrow=ERoneToMany;rounded=0;entryX=1;entryY=0.5;entryDx=0;entryDy=0;exitX=-0.015;exitY=0.9;exitDx=0;exitDy=0;exitPerimeter=0;" edge="1" parent="1" source="IxB0ZYi03rvREHSyek8v-44" target="IxB0ZYi03rvREHSyek8v-24">
          <mxGeometry width="100" height="100" relative="1" as="geometry">
            <mxPoint x="969" y="446" as="sourcePoint" />
            <mxPoint x="970" y="514" as="targetPoint" />
          </mxGeometry>
        </mxCell>
        <mxCell id="IxB0ZYi03rvREHSyek8v-58" value="" style="fontSize=12;html=1;endArrow=ERoneToMany;rounded=0;exitX=0.5;exitY=0;exitDx=0;exitDy=0;" edge="1" parent="1" source="IxB0ZYi03rvREHSyek8v-49">
          <mxGeometry width="100" height="100" relative="1" as="geometry">
            <mxPoint x="970" y="443" as="sourcePoint" />
            <mxPoint x="960" y="680" as="targetPoint" />
          </mxGeometry>
        </mxCell>
        <mxCell id="IxB0ZYi03rvREHSyek8v-59" value="" style="fontSize=12;html=1;endArrow=ERoneToMany;rounded=0;exitX=0;exitY=0.5;exitDx=0;exitDy=0;entryX=0.95;entryY=0.086;entryDx=0;entryDy=0;entryPerimeter=0;" edge="1" parent="1" source="IxB0ZYi03rvREHSyek8v-51" target="IxB0ZYi03rvREHSyek8v-29">
          <mxGeometry width="100" height="100" relative="1" as="geometry">
            <mxPoint x="857" y="780" as="sourcePoint" />
            <mxPoint x="720" y="780" as="targetPoint" />
          </mxGeometry>
        </mxCell>
        <mxCell id="IxB0ZYi03rvREHSyek8v-60" value="sat_client_contact" style="swimlane;fontStyle=0;childLayout=stackLayout;horizontal=1;startSize=26;horizontalStack=0;resizeParent=1;resizeParentMax=0;resizeLast=0;collapsible=1;marginBottom=0;align=center;fontSize=14;fillColor=#CC99FF;" vertex="1" parent="1">
          <mxGeometry x="1380" y="50" width="160" height="176" as="geometry" />
        </mxCell>
        <mxCell id="IxB0ZYi03rvREHSyek8v-61" value="&lt;b&gt;&lt;u&gt;client hash key&lt;/u&gt;&lt;/b&gt;" style="text;strokeColor=none;fillColor=none;spacingLeft=4;spacingRight=4;overflow=hidden;rotatable=0;points=[[0,0.5],[1,0.5]];portConstraint=eastwest;fontSize=12;whiteSpace=wrap;html=1;" vertex="1" parent="IxB0ZYi03rvREHSyek8v-60">
          <mxGeometry y="26" width="160" height="30" as="geometry" />
        </mxCell>
        <mxCell id="IxB0ZYi03rvREHSyek8v-62" value="load_date" style="text;strokeColor=none;fillColor=none;spacingLeft=4;spacingRight=4;overflow=hidden;rotatable=0;points=[[0,0.5],[1,0.5]];portConstraint=eastwest;fontSize=12;whiteSpace=wrap;html=1;" vertex="1" parent="IxB0ZYi03rvREHSyek8v-60">
          <mxGeometry y="56" width="160" height="30" as="geometry" />
        </mxCell>
        <mxCell id="IxB0ZYi03rvREHSyek8v-63" value="record_source" style="text;strokeColor=none;fillColor=none;spacingLeft=4;spacingRight=4;overflow=hidden;rotatable=0;points=[[0,0.5],[1,0.5]];portConstraint=eastwest;fontSize=12;whiteSpace=wrap;html=1;" vertex="1" parent="IxB0ZYi03rvREHSyek8v-60">
          <mxGeometry y="86" width="160" height="30" as="geometry" />
        </mxCell>
        <mxCell id="IxB0ZYi03rvREHSyek8v-64" value="email" style="text;strokeColor=none;fillColor=none;spacingLeft=4;spacingRight=4;overflow=hidden;rotatable=0;points=[[0,0.5],[1,0.5]];portConstraint=eastwest;fontSize=12;whiteSpace=wrap;html=1;" vertex="1" parent="IxB0ZYi03rvREHSyek8v-60">
          <mxGeometry y="116" width="160" height="30" as="geometry" />
        </mxCell>
        <mxCell id="IxB0ZYi03rvREHSyek8v-65" value="phone" style="text;strokeColor=none;fillColor=none;spacingLeft=4;spacingRight=4;overflow=hidden;rotatable=0;points=[[0,0.5],[1,0.5]];portConstraint=eastwest;fontSize=12;whiteSpace=wrap;html=1;" vertex="1" parent="IxB0ZYi03rvREHSyek8v-60">
          <mxGeometry y="146" width="160" height="30" as="geometry" />
        </mxCell>
        <mxCell id="IxB0ZYi03rvREHSyek8v-66" value="sat_order_client" style="swimlane;fontStyle=0;childLayout=stackLayout;horizontal=1;startSize=26;horizontalStack=0;resizeParent=1;resizeParentMax=0;resizeLast=0;collapsible=1;marginBottom=0;align=center;fontSize=14;fillColor=#CC99FF;" vertex="1" parent="1">
          <mxGeometry x="1110" y="80" width="160" height="146" as="geometry" />
        </mxCell>
        <mxCell id="IxB0ZYi03rvREHSyek8v-67" value="&lt;b&gt;&lt;u&gt;link order client hash key&lt;/u&gt;&lt;/b&gt;" style="text;strokeColor=none;fillColor=none;spacingLeft=4;spacingRight=4;overflow=hidden;rotatable=0;points=[[0,0.5],[1,0.5]];portConstraint=eastwest;fontSize=12;whiteSpace=wrap;html=1;" vertex="1" parent="IxB0ZYi03rvREHSyek8v-66">
          <mxGeometry y="26" width="160" height="30" as="geometry" />
        </mxCell>
        <mxCell id="IxB0ZYi03rvREHSyek8v-68" value="load_date" style="text;strokeColor=none;fillColor=none;spacingLeft=4;spacingRight=4;overflow=hidden;rotatable=0;points=[[0,0.5],[1,0.5]];portConstraint=eastwest;fontSize=12;whiteSpace=wrap;html=1;" vertex="1" parent="IxB0ZYi03rvREHSyek8v-66">
          <mxGeometry y="56" width="160" height="30" as="geometry" />
        </mxCell>
        <mxCell id="IxB0ZYi03rvREHSyek8v-69" value="record_source" style="text;strokeColor=none;fillColor=none;spacingLeft=4;spacingRight=4;overflow=hidden;rotatable=0;points=[[0,0.5],[1,0.5]];portConstraint=eastwest;fontSize=12;whiteSpace=wrap;html=1;" vertex="1" parent="IxB0ZYi03rvREHSyek8v-66">
          <mxGeometry y="86" width="160" height="30" as="geometry" />
        </mxCell>
        <mxCell id="IxB0ZYi03rvREHSyek8v-70" value="date" style="text;strokeColor=none;fillColor=none;spacingLeft=4;spacingRight=4;overflow=hidden;rotatable=0;points=[[0,0.5],[1,0.5]];portConstraint=eastwest;fontSize=12;whiteSpace=wrap;html=1;" vertex="1" parent="IxB0ZYi03rvREHSyek8v-66">
          <mxGeometry y="116" width="160" height="30" as="geometry" />
        </mxCell>
        <mxCell id="IxB0ZYi03rvREHSyek8v-72" value="link_order_client" style="swimlane;fontStyle=0;childLayout=stackLayout;horizontal=1;startSize=26;horizontalStack=0;resizeParent=1;resizeParentMax=0;resizeLast=0;collapsible=1;marginBottom=0;align=center;fontSize=14;fillColor=#FF9999;" vertex="1" parent="1">
          <mxGeometry x="1110" y="286" width="200" height="176" as="geometry" />
        </mxCell>
        <mxCell id="IxB0ZYi03rvREHSyek8v-73" value="&lt;b&gt;&lt;u&gt;link order client hash key&lt;/u&gt;&lt;/b&gt;" style="text;strokeColor=none;fillColor=none;spacingLeft=4;spacingRight=4;overflow=hidden;rotatable=0;points=[[0,0.5],[1,0.5]];portConstraint=eastwest;fontSize=12;whiteSpace=wrap;html=1;" vertex="1" parent="IxB0ZYi03rvREHSyek8v-72">
          <mxGeometry y="26" width="200" height="30" as="geometry" />
        </mxCell>
        <mxCell id="IxB0ZYi03rvREHSyek8v-74" value="load_date" style="text;strokeColor=none;fillColor=none;spacingLeft=4;spacingRight=4;overflow=hidden;rotatable=0;points=[[0,0.5],[1,0.5]];portConstraint=eastwest;fontSize=12;whiteSpace=wrap;html=1;" vertex="1" parent="IxB0ZYi03rvREHSyek8v-72">
          <mxGeometry y="56" width="200" height="30" as="geometry" />
        </mxCell>
        <mxCell id="IxB0ZYi03rvREHSyek8v-75" value="record_source" style="text;strokeColor=none;fillColor=none;spacingLeft=4;spacingRight=4;overflow=hidden;rotatable=0;points=[[0,0.5],[1,0.5]];portConstraint=eastwest;fontSize=12;whiteSpace=wrap;html=1;" vertex="1" parent="IxB0ZYi03rvREHSyek8v-72">
          <mxGeometry y="86" width="200" height="30" as="geometry" />
        </mxCell>
        <mxCell id="IxB0ZYi03rvREHSyek8v-76" value="order_hash_key" style="text;strokeColor=none;fillColor=none;spacingLeft=4;spacingRight=4;overflow=hidden;rotatable=0;points=[[0,0.5],[1,0.5]];portConstraint=eastwest;fontSize=12;whiteSpace=wrap;html=1;" vertex="1" parent="IxB0ZYi03rvREHSyek8v-72">
          <mxGeometry y="116" width="200" height="30" as="geometry" />
        </mxCell>
        <mxCell id="IxB0ZYi03rvREHSyek8v-77" value="client_hash_key" style="text;strokeColor=none;fillColor=none;spacingLeft=4;spacingRight=4;overflow=hidden;rotatable=0;points=[[0,0.5],[1,0.5]];portConstraint=eastwest;fontSize=12;whiteSpace=wrap;html=1;" vertex="1" parent="IxB0ZYi03rvREHSyek8v-72">
          <mxGeometry y="146" width="200" height="30" as="geometry" />
        </mxCell>
        <mxCell id="IxB0ZYi03rvREHSyek8v-78" value="hab_client" style="swimlane;fontStyle=0;childLayout=stackLayout;horizontal=1;startSize=26;horizontalStack=0;resizeParent=1;resizeParentMax=0;resizeLast=0;collapsible=1;marginBottom=0;align=center;fontSize=14;fillColor=#99FF99;" vertex="1" parent="1">
          <mxGeometry x="1380" y="286" width="160" height="146" as="geometry" />
        </mxCell>
        <mxCell id="IxB0ZYi03rvREHSyek8v-79" value="&lt;b&gt;&lt;u&gt;client hash key&lt;/u&gt;&lt;/b&gt;" style="text;strokeColor=none;fillColor=none;spacingLeft=4;spacingRight=4;overflow=hidden;rotatable=0;points=[[0,0.5],[1,0.5]];portConstraint=eastwest;fontSize=12;whiteSpace=wrap;html=1;" vertex="1" parent="IxB0ZYi03rvREHSyek8v-78">
          <mxGeometry y="26" width="160" height="30" as="geometry" />
        </mxCell>
        <mxCell id="IxB0ZYi03rvREHSyek8v-80" value="&lt;b&gt;PK &lt;/b&gt;client_id" style="text;strokeColor=none;fillColor=none;spacingLeft=4;spacingRight=4;overflow=hidden;rotatable=0;points=[[0,0.5],[1,0.5]];portConstraint=eastwest;fontSize=12;whiteSpace=wrap;html=1;" vertex="1" parent="IxB0ZYi03rvREHSyek8v-78">
          <mxGeometry y="56" width="160" height="30" as="geometry" />
        </mxCell>
        <mxCell id="IxB0ZYi03rvREHSyek8v-81" value="load_date" style="text;strokeColor=none;fillColor=none;spacingLeft=4;spacingRight=4;overflow=hidden;rotatable=0;points=[[0,0.5],[1,0.5]];portConstraint=eastwest;fontSize=12;whiteSpace=wrap;html=1;" vertex="1" parent="IxB0ZYi03rvREHSyek8v-78">
          <mxGeometry y="86" width="160" height="30" as="geometry" />
        </mxCell>
        <mxCell id="IxB0ZYi03rvREHSyek8v-82" value="record_source" style="text;strokeColor=none;fillColor=none;spacingLeft=4;spacingRight=4;overflow=hidden;rotatable=0;points=[[0,0.5],[1,0.5]];portConstraint=eastwest;fontSize=12;whiteSpace=wrap;html=1;" vertex="1" parent="IxB0ZYi03rvREHSyek8v-78">
          <mxGeometry y="116" width="160" height="30" as="geometry" />
        </mxCell>
        <mxCell id="IxB0ZYi03rvREHSyek8v-83" value="sat_client_cookies" style="swimlane;fontStyle=0;childLayout=stackLayout;horizontal=1;startSize=26;horizontalStack=0;resizeParent=1;resizeParentMax=0;resizeLast=0;collapsible=1;marginBottom=0;align=center;fontSize=14;fillColor=#CC99FF;" vertex="1" parent="1">
          <mxGeometry x="1120" y="540" width="160" height="146" as="geometry" />
        </mxCell>
        <mxCell id="IxB0ZYi03rvREHSyek8v-84" value="&lt;b&gt;&lt;u&gt;client hash key&lt;/u&gt;&lt;/b&gt;" style="text;strokeColor=none;fillColor=none;spacingLeft=4;spacingRight=4;overflow=hidden;rotatable=0;points=[[0,0.5],[1,0.5]];portConstraint=eastwest;fontSize=12;whiteSpace=wrap;html=1;" vertex="1" parent="IxB0ZYi03rvREHSyek8v-83">
          <mxGeometry y="26" width="160" height="30" as="geometry" />
        </mxCell>
        <mxCell id="IxB0ZYi03rvREHSyek8v-85" value="load_date" style="text;strokeColor=none;fillColor=none;spacingLeft=4;spacingRight=4;overflow=hidden;rotatable=0;points=[[0,0.5],[1,0.5]];portConstraint=eastwest;fontSize=12;whiteSpace=wrap;html=1;" vertex="1" parent="IxB0ZYi03rvREHSyek8v-83">
          <mxGeometry y="56" width="160" height="30" as="geometry" />
        </mxCell>
        <mxCell id="IxB0ZYi03rvREHSyek8v-86" value="record_source" style="text;strokeColor=none;fillColor=none;spacingLeft=4;spacingRight=4;overflow=hidden;rotatable=0;points=[[0,0.5],[1,0.5]];portConstraint=eastwest;fontSize=12;whiteSpace=wrap;html=1;" vertex="1" parent="IxB0ZYi03rvREHSyek8v-83">
          <mxGeometry y="86" width="160" height="30" as="geometry" />
        </mxCell>
        <mxCell id="IxB0ZYi03rvREHSyek8v-87" value="cookies" style="text;strokeColor=none;fillColor=none;spacingLeft=4;spacingRight=4;overflow=hidden;rotatable=0;points=[[0,0.5],[1,0.5]];portConstraint=eastwest;fontSize=12;whiteSpace=wrap;html=1;" vertex="1" parent="IxB0ZYi03rvREHSyek8v-83">
          <mxGeometry y="116" width="160" height="30" as="geometry" />
        </mxCell>
        <mxCell id="IxB0ZYi03rvREHSyek8v-88" value="sat_client_gender" style="swimlane;fontStyle=0;childLayout=stackLayout;horizontal=1;startSize=26;horizontalStack=0;resizeParent=1;resizeParentMax=0;resizeLast=0;collapsible=1;marginBottom=0;align=center;fontSize=14;fillColor=#CC99FF;" vertex="1" parent="1">
          <mxGeometry x="1380" y="539" width="160" height="146" as="geometry" />
        </mxCell>
        <mxCell id="IxB0ZYi03rvREHSyek8v-89" value="&lt;b&gt;&lt;u&gt;client hash key&lt;/u&gt;&lt;/b&gt;" style="text;strokeColor=none;fillColor=none;spacingLeft=4;spacingRight=4;overflow=hidden;rotatable=0;points=[[0,0.5],[1,0.5]];portConstraint=eastwest;fontSize=12;whiteSpace=wrap;html=1;" vertex="1" parent="IxB0ZYi03rvREHSyek8v-88">
          <mxGeometry y="26" width="160" height="30" as="geometry" />
        </mxCell>
        <mxCell id="IxB0ZYi03rvREHSyek8v-90" value="load_date" style="text;strokeColor=none;fillColor=none;spacingLeft=4;spacingRight=4;overflow=hidden;rotatable=0;points=[[0,0.5],[1,0.5]];portConstraint=eastwest;fontSize=12;whiteSpace=wrap;html=1;" vertex="1" parent="IxB0ZYi03rvREHSyek8v-88">
          <mxGeometry y="56" width="160" height="30" as="geometry" />
        </mxCell>
        <mxCell id="IxB0ZYi03rvREHSyek8v-91" value="record_source" style="text;strokeColor=none;fillColor=none;spacingLeft=4;spacingRight=4;overflow=hidden;rotatable=0;points=[[0,0.5],[1,0.5]];portConstraint=eastwest;fontSize=12;whiteSpace=wrap;html=1;" vertex="1" parent="IxB0ZYi03rvREHSyek8v-88">
          <mxGeometry y="86" width="160" height="30" as="geometry" />
        </mxCell>
        <mxCell id="IxB0ZYi03rvREHSyek8v-92" value="gender" style="text;strokeColor=none;fillColor=none;spacingLeft=4;spacingRight=4;overflow=hidden;rotatable=0;points=[[0,0.5],[1,0.5]];portConstraint=eastwest;fontSize=12;whiteSpace=wrap;html=1;" vertex="1" parent="IxB0ZYi03rvREHSyek8v-88">
          <mxGeometry y="116" width="160" height="30" as="geometry" />
        </mxCell>
        <mxCell id="IxB0ZYi03rvREHSyek8v-93" value="sat_client_personal" style="swimlane;fontStyle=0;childLayout=stackLayout;horizontal=1;startSize=26;horizontalStack=0;resizeParent=1;resizeParentMax=0;resizeLast=0;collapsible=1;marginBottom=0;align=center;fontSize=14;fillColor=#CC99FF;" vertex="1" parent="1">
          <mxGeometry x="1640" y="271" width="160" height="206" as="geometry" />
        </mxCell>
        <mxCell id="IxB0ZYi03rvREHSyek8v-94" value="&lt;b&gt;&lt;u&gt;client hash key&lt;/u&gt;&lt;/b&gt;" style="text;strokeColor=none;fillColor=none;spacingLeft=4;spacingRight=4;overflow=hidden;rotatable=0;points=[[0,0.5],[1,0.5]];portConstraint=eastwest;fontSize=12;whiteSpace=wrap;html=1;" vertex="1" parent="IxB0ZYi03rvREHSyek8v-93">
          <mxGeometry y="26" width="160" height="30" as="geometry" />
        </mxCell>
        <mxCell id="IxB0ZYi03rvREHSyek8v-95" value="load_date" style="text;strokeColor=none;fillColor=none;spacingLeft=4;spacingRight=4;overflow=hidden;rotatable=0;points=[[0,0.5],[1,0.5]];portConstraint=eastwest;fontSize=12;whiteSpace=wrap;html=1;" vertex="1" parent="IxB0ZYi03rvREHSyek8v-93">
          <mxGeometry y="56" width="160" height="30" as="geometry" />
        </mxCell>
        <mxCell id="IxB0ZYi03rvREHSyek8v-96" value="record_source" style="text;strokeColor=none;fillColor=none;spacingLeft=4;spacingRight=4;overflow=hidden;rotatable=0;points=[[0,0.5],[1,0.5]];portConstraint=eastwest;fontSize=12;whiteSpace=wrap;html=1;" vertex="1" parent="IxB0ZYi03rvREHSyek8v-93">
          <mxGeometry y="86" width="160" height="30" as="geometry" />
        </mxCell>
        <mxCell id="IxB0ZYi03rvREHSyek8v-97" value="first_name" style="text;strokeColor=none;fillColor=none;spacingLeft=4;spacingRight=4;overflow=hidden;rotatable=0;points=[[0,0.5],[1,0.5]];portConstraint=eastwest;fontSize=12;whiteSpace=wrap;html=1;" vertex="1" parent="IxB0ZYi03rvREHSyek8v-93">
          <mxGeometry y="116" width="160" height="30" as="geometry" />
        </mxCell>
        <mxCell id="IxB0ZYi03rvREHSyek8v-98" value="last_name" style="text;strokeColor=none;fillColor=none;spacingLeft=4;spacingRight=4;overflow=hidden;rotatable=0;points=[[0,0.5],[1,0.5]];portConstraint=eastwest;fontSize=12;whiteSpace=wrap;html=1;" vertex="1" parent="IxB0ZYi03rvREHSyek8v-93">
          <mxGeometry y="146" width="160" height="30" as="geometry" />
        </mxCell>
        <mxCell id="IxB0ZYi03rvREHSyek8v-99" value="birthday" style="text;strokeColor=none;fillColor=none;spacingLeft=4;spacingRight=4;overflow=hidden;rotatable=0;points=[[0,0.5],[1,0.5]];portConstraint=eastwest;fontSize=12;whiteSpace=wrap;html=1;" vertex="1" parent="IxB0ZYi03rvREHSyek8v-93">
          <mxGeometry y="176" width="160" height="30" as="geometry" />
        </mxCell>
        <mxCell id="IxB0ZYi03rvREHSyek8v-100" value="" style="fontSize=12;html=1;endArrow=ERoneToMany;rounded=0;entryX=0;entryY=0.5;entryDx=0;entryDy=0;" edge="1" parent="1" source="IxB0ZYi03rvREHSyek8v-40" target="IxB0ZYi03rvREHSyek8v-74">
          <mxGeometry width="100" height="100" relative="1" as="geometry">
            <mxPoint x="1070" y="360" as="sourcePoint" />
            <mxPoint x="1070" y="431" as="targetPoint" />
          </mxGeometry>
        </mxCell>
        <mxCell id="IxB0ZYi03rvREHSyek8v-101" value="" style="fontSize=12;html=1;endArrow=ERoneToMany;rounded=0;entryX=0.5;entryY=1.017;entryDx=0;entryDy=0;entryPerimeter=0;exitX=0.406;exitY=0.003;exitDx=0;exitDy=0;exitPerimeter=0;" edge="1" parent="1" source="IxB0ZYi03rvREHSyek8v-72" target="IxB0ZYi03rvREHSyek8v-70">
          <mxGeometry width="100" height="100" relative="1" as="geometry">
            <mxPoint x="1050" y="367" as="sourcePoint" />
            <mxPoint x="1120" y="367" as="targetPoint" />
          </mxGeometry>
        </mxCell>
        <mxCell id="IxB0ZYi03rvREHSyek8v-103" value="" style="fontSize=12;html=1;endArrow=ERoneToMany;rounded=0;entryX=0.5;entryY=1.017;entryDx=0;entryDy=0;entryPerimeter=0;exitX=0.406;exitY=0.003;exitDx=0;exitDy=0;exitPerimeter=0;" edge="1" parent="1">
          <mxGeometry width="100" height="100" relative="1" as="geometry">
            <mxPoint x="1451" y="286" as="sourcePoint" />
            <mxPoint x="1450" y="226" as="targetPoint" />
          </mxGeometry>
        </mxCell>
        <mxCell id="IxB0ZYi03rvREHSyek8v-104" value="" style="fontSize=12;html=1;endArrow=ERoneToMany;rounded=0;entryX=1;entryY=0.5;entryDx=0;entryDy=0;exitX=0;exitY=0.5;exitDx=0;exitDy=0;" edge="1" parent="1" source="IxB0ZYi03rvREHSyek8v-80" target="IxB0ZYi03rvREHSyek8v-74">
          <mxGeometry width="100" height="100" relative="1" as="geometry">
            <mxPoint x="1201" y="297" as="sourcePoint" />
            <mxPoint x="1200" y="237" as="targetPoint" />
          </mxGeometry>
        </mxCell>
        <mxCell id="IxB0ZYi03rvREHSyek8v-105" value="" style="fontSize=12;html=1;endArrow=ERoneToMany;rounded=0;entryX=0.469;entryY=0.014;entryDx=0;entryDy=0;exitX=0.467;exitY=1.009;exitDx=0;exitDy=0;exitPerimeter=0;entryPerimeter=0;" edge="1" parent="1" source="IxB0ZYi03rvREHSyek8v-82" target="IxB0ZYi03rvREHSyek8v-88">
          <mxGeometry width="100" height="100" relative="1" as="geometry">
            <mxPoint x="1390" y="367" as="sourcePoint" />
            <mxPoint x="1320" y="367" as="targetPoint" />
          </mxGeometry>
        </mxCell>
        <mxCell id="IxB0ZYi03rvREHSyek8v-106" value="" style="edgeStyle=entityRelationEdgeStyle;fontSize=12;html=1;endArrow=ERoneToMany;rounded=0;entryX=1;entryY=0.5;entryDx=0;entryDy=0;exitX=0.479;exitY=1;exitDx=0;exitDy=0;exitPerimeter=0;" edge="1" parent="1" source="IxB0ZYi03rvREHSyek8v-82" target="IxB0ZYi03rvREHSyek8v-84">
          <mxGeometry width="100" height="100" relative="1" as="geometry">
            <mxPoint x="1380" y="435" as="sourcePoint" />
            <mxPoint x="1350" y="510" as="targetPoint" />
          </mxGeometry>
        </mxCell>
        <mxCell id="IxB0ZYi03rvREHSyek8v-107" value="" style="fontSize=12;html=1;endArrow=ERoneToMany;rounded=0;entryX=0;entryY=0.5;entryDx=0;entryDy=0;exitX=1.049;exitY=0.946;exitDx=0;exitDy=0;exitPerimeter=0;" edge="1" parent="1" source="IxB0ZYi03rvREHSyek8v-79" target="IxB0ZYi03rvREHSyek8v-95">
          <mxGeometry width="100" height="100" relative="1" as="geometry">
            <mxPoint x="1461" y="296" as="sourcePoint" />
            <mxPoint x="1460" y="236" as="targetPoint" />
          </mxGeometry>
        </mxCell>
      </root>
    </mxGraphModel>
  </diagram>
</mxfile>
